<svg xmlns="http://www.w3.org/2000/svg" fill="#fff" data-name="Layer 1" viewBox="0 0 128 128" id="garbage">
    <path stroke="white" stroke-width="2" d="M44.00313 71.99985a14.00137 14.00137 0 1 0 14.00137-14A14.01641 14.01641 0 0 0 44.00313 71.99985zm24.00235 0a10.001 10.001 0 1 1-10.001-10A10.01195 10.01195 0 0 1 68.00548 71.99985zM115.11849 111.72544a4.80716 4.80716 0 0 0-.22463-.46289L99.29663 81.94907a1.5035 1.5035 0 0 1 .04688-1.18066l4.49165-9.42969a3.74258 3.74258 0 0 0-.39848-3.88184A3.83658 3.83658 0 0 0 99.70585 65.993c-.04395.00684-.0879.0166-.13087.02637l-6.87372 1.66113-.89462-2.25a1.99705 1.99705 0 0 0-1.02647-1.0791 3.88764 3.88764 0 0 0-2.0627-.3252L79.45 65.10629a3.8101 3.8101 0 0 0-2.86844 1.8584 3.72 3.72 0 0 0-.23733 3.32813l4.3725 10.64648a1.487 1.487 0 0 1 .01172 1.10742L65.15559 111.19809a4.8026 4.8026 0 0 0-.25247.5127 11.61135 11.61135 0 0 0 1.08067 10.9209 12.13741 12.13741 0 0 0 10.13673 5.36816h27.7742a12.14146 12.14146 0 0 0 10.13087-5.3584A11.61742 11.61742 0 0 0 115.11849 111.72544zM80.158 69.04965l8.38754-.99414.66706 1.67676a3.292 3.292 0 0 0 3.53648 2.0459l.00879-.002c.04981-.00781.1006-.01758.14845-.0293l7.12374-1.72168-4.29925 9.02441a5.49807 5.49807 0 0 0-.342.9502H84.59054a5.50213 5.50213 0 0 0-.17427-.58105zm30.54205 51.36816a8.14628 8.14628 0 0 1-6.80535 3.582H76.12053a8.1462 8.1462 0 0 1-6.80926-3.58789 7.52151 7.52151 0 0 1-.71394-7.166L84.22 83.99985h4.22435a8.312 8.312 0 0 1-3.98025 6.29395 1.99965 1.99965 0 1 0 2.08614 3.41211A12.243 12.243 0 0 0 92.457 83.99985h3.39981l15.524 29.1748a.87125.87125 0 0 1 .043.085A7.52059 7.52059 0 0 1 110.70009 120.41782z"></path>
    <path stroke="white" stroke-width="2" d="M62.65632,124.85239q-.28-.4194-.53-.85254H32.73836a1.92073,1.92073,0,0,1-1.79363-1.80273l-.45341-4.19727H60.12886a15.55756,15.55756,0,0,1,.03821-4H30.05914l-8.96651-83H94.91638L91.735,60.4465c.239.08234.47917.16168.71034.26721a6.00962,6.00962,0,0,1,2.59791,2.28613l.45109-.10907,3.44534-31.89093h1.06889a4.00415,4.00415,0,0,0,4.00039-4v-6a4.00415,4.00415,0,0,0-4.00039-4H98.36844l1.54739-6.17969a3.05429,3.05429,0,0,0-.77644-2.89258,2.94014,2.94014,0,0,0-2.7698-.82715h-.001L89.94806,8.54184a2.00273,2.00273,0,0,0-.5567.21582l-3.52378,2.02148L81.34272,5.12192a2.97469,2.97469,0,0,0-2.25315-1.12109,2.83324,2.83324,0,0,0-2.3,1.0127L66.238,16.99985H37.42046l-1.20031-2.85156,3.51255-6.416L50.69275,4.06333,62.30522,8.55844l.78383,5.96442,3.5106-3.988-.483-3.67371a2.003,2.003,0,0,0-1.26087-1.60449L51.79979.202A3.00263,3.00263,0,0,0,49.76541.15512l-12.0461,4.0332a2.00072,2.00072,0,0,0-1.11925.93652L32.24759,13.075a1.99846,1.99846,0,0,0-.08888,1.73633l.92123,2.18848H23.67241l-1.69194-3.30859,3.159-2.18848,2.87,2.251a5.99432,5.99432,0,0,1,.729-2.59961l.73219-1.33746L27.60748,8.35532a4.06181,4.06181,0,0,0-4.79783-.12793l-3.12384,2.1875a3.90289,3.90289,0,0,0-1.277,4.957l.8077,1.62793H16.00039a4.00447,4.00447,0,0,0-4.00039,4v6a4.00447,4.00447,0,0,0,4.00039,4h1.06883l9.89953,91.6377a5.91288,5.91288,0,0,0,5.76961,5.3623h32.685A15.97333,15.97333,0,0,1,62.65632,124.85239ZM78.98312,8.576l4.83153,6.03906a1.99961,1.99961,0,0,0,2.55689.48633L91.12,12.37778l4.53658-1.01855-1.41219,5.64062h-22.677ZM16.00039,20.99985h84.00822l.00293,6H16.00039Z"></path>
</svg>