<svg xmlns="http://www.w3.org/2000/svg" fill="#fff" enable-background="new 0 0 512 512" viewBox="0 0 512 512" id="water-bottle">
	<path stroke="white" stroke-width="16" d="M333.23,244.808c-2.449-9.142-1.801-19.065,2.577-28.668c21.504-46.713,12.516-94.976-35.296-133.067
		c-11.12-8.863-11.509-19.582-12.885-23.088c7.315-1.468,12.843-7.935,12.843-15.676V20.072c0-8.82-7.175-15.995-15.995-15.995
		h-56.961c-8.82,0-15.995,7.175-15.995,15.995v24.237c0,7.741,5.528,14.208,12.843,15.676c-1.364,3.477-1.769,14.232-12.885,23.088
		c-75.351,60.032-36.497,126.164-32.754,140.117c1.923,7.167,1.937,14.53,0.03,21.65c-22.332,85.475-31.581,143.478-12.577,228.089
		c4.545,20.275,21.985,34.994,41.466,34.994c8.218,0,16.882-2.817,24.176-8.5c7.048,5.494,15.464,8.5,24.176,8.5
		c8.72,0,17.141-3.013,24.177-8.5c6.687,5.22,15.277,8.5,24.178,8.5c18.728,0,35.364-13.933,41.466-34.989
		C364.774,388.644,355.682,330.765,333.23,244.808z M222.182,44.309V20.072c0-2.942,2.392-5.332,5.332-5.332h56.961
		c2.942,0,5.332,2.39,5.332,5.332v24.237c0,2.942-2.39,5.332-5.332,5.332h-56.961C224.574,49.641,222.182,47.251,222.182,44.309z
			M218.121,91.414c14.805-11.795,15.26-26.143,17.194-31.11h41.358c1.933,4.961,2.389,19.31,17.195,31.11
		c23.084,18.389,36.826,39.831,40.905,62.949H177.214C181.295,131.246,195.038,109.805,218.121,91.414z M335.495,470.274
		c-4.691,16.141-17.208,26.986-31.146,26.986c-6.657,0-11.83-2.252-16.427-5.566c7.524-9.44,11.778-21.829,11.778-34.906
		c0-2.947-2.385-5.332-5.332-5.332s-5.332,2.385-5.332,5.332c0,20.272-13.261,40.472-33.042,40.472
		c-19.787,0-33.039-20.135-33.039-40.472c0-2.947-2.387-5.332-5.332-5.332s-5.332,2.385-5.332,5.332
		c0,13.133,4.286,25.58,11.861,35.027c-4.938,3.537-10.547,5.445-16.51,5.445c-14.534,0-27.598-11.215-31.063-26.663
		c-18.563-82.656-9.311-139.605,12.48-223.023c2.743-10.242,2.242-21.281-1.431-31.55c-3.963-11.088-12.743-25.994-11.55-50.997
		h159.828c0.781,16.378-3.022,31.959-9.8,46.678c-5.181,11.359-6.33,24.092-3.186,35.838
		C344.81,331.322,353.94,388.219,335.495,470.274z"></path>
</svg>