<svg xmlns="http://www.w3.org/2000/svg" enable-background="new 0 0 64 64" viewBox="0 0 64 64" id="milk-box">
	<path fill="#fff" stroke="white" stroke-width="2" d="M53.97,19.47c0-0.06-0.02-0.12-0.04-0.19c-0.02-0.07-0.04-0.13-0.07-0.19c-0.01-0.02-0.01-0.04-0.02-0.07
		L45.35,5.34V0.97c0-0.54-0.43-0.97-0.97-0.97H20.11c-0.54,0-0.97,0.43-0.97,0.97v4.35l-8.96,13.44c-0.14,0.21-0.18,0.46-0.14,0.69
		c0,0.03-0.02,0.06-0.02,0.09v41.37c0,0.49,0.37,0.91,0.86,0.96l19.06,2.12c0.04,0,0.07,0.01,0.11,0.01c0,0,0,0,0,0c0,0,0,0,0,0
		c0,0,0,0,0,0s0,0,0,0c0.04,0,0.08,0,0.12-0.01l22.97-2.87c0.48-0.06,0.85-0.47,0.85-0.96V19.54
		C53.98,19.51,53.97,19.49,53.97,19.47z M21.08,1.94h22.33v2.7H21.08V1.94z M20.14,7.32l8.03,11.25H12.64L20.14,7.32z M29.08,61.95
		l-17.12-1.9V20.51h17.12V61.95z M21.99,6.58h21.85l7.43,11.99H30.55L21.99,6.58z M52.04,59.31l-21.03,2.63V20.51h21.03V59.31z"></path>
	<path fill="#fff" stroke="white" stroke-width="2" d="M41.53,50.36c3.5,0,6.34-3.01,6.34-6.7c0-3.39-4.99-10.28-5.56-11.05c-0.18-0.25-0.47-0.4-0.78-0.4
		c-0.31,0-0.6,0.15-0.78,0.39c-0.57,0.78-5.56,7.67-5.56,11.05C35.18,47.35,38.03,50.36,41.53,50.36z M41.53,34.85
		c1.7,2.47,4.41,6.82,4.41,8.8c0,2.63-1.98,4.76-4.41,4.76c-2.43,0-4.41-2.14-4.41-4.76C37.12,41.67,39.83,37.32,41.53,34.85z"></path>
</svg>